<?xml version="1.0" standalone="no"?>
<!DOCTYPE svg PUBLIC "-//W3C//DTD SVG 20010904//EN"
 "http://www.w3.org/TR/2001/REC-SVG-20010904/DTD/svg10.dtd">
<svg version="1.0" xmlns="http://www.w3.org/2000/svg"
 width="1920.000000pt" height="1080.000000pt" viewBox="0 0 1920.000000 1080.000000"
 preserveAspectRatio="xMidYMid meet">
<metadata>
Created by potrace 1.16, written by Peter Selinger 2001-2019
</metadata>
<g transform="translate(0.000000,1080.000000) scale(0.100000,-0.100000)"
fill="#000000" stroke="none">
<path d="M0 5400 l0 -5400 9600 0 9600 0 0 5400 0 5400 -9600 0 -9600 0 0
-5400z m9983 2773 c-7 -2 -21 -2 -30 0 -10 3 -4 5 12 5 17 0 24 -2 18 -5z
m321 -3 c-15 -15 -56 -17 -61 -2 -3 8 7 12 33 12 25 0 35 -3 28 -10z m-540
-11 c-7 -11 15 -22 61 -31 22 -4 -20 -5 -95 -3 -75 2 -153 9 -175 16 l-40 14
65 6 c90 8 190 7 184 -2z m483 -43 c11 -10 -8 -21 -73 -44 -75 -27 -78 -27
-114 0 -41 30 -38 46 8 44 20 -1 53 1 72 5 40 8 97 5 107 -5z m-772 -280 c37
-16 54 -31 55 -48 0 -5 -24 -8 -53 -8 -29 0 -61 -6 -72 -13 -22 -17 -12 -25
47 -36 l43 -8 -75 -24 c-135 -43 -332 -27 -385 31 -35 39 11 91 103 117 68 19
284 12 337 -11z m-811 -316 c22 -22 15 -50 -12 -50 -11 0 -25 -6 -31 -14 -10
-12 -7 -17 15 -29 l27 -14 -59 -23 c-40 -15 -90 -24 -156 -28 -85 -4 -102 -2
-142 17 -81 40 -70 78 34 125 107 48 283 57 324 16z m-26 -188 c4 -14 -34 -16
-42 -3 -6 10 13 21 28 17 6 -1 12 -8 14 -14z m1210 -243 c-12 -7 -24 -7 -35 0
-15 9 -12 10 17 10 29 0 32 -1 18 -10z m-2250 -398 c3 -8 -1 -12 -9 -9 -7 2
-15 10 -17 17 -3 8 1 12 9 9 7 -2 15 -10 17 -17z m3672 -124 c0 -17 -20 -37
-37 -37 -18 0 -16 15 3 34 19 19 34 21 34 3z m680 -830 c120 -46 165 -76 253
-166 78 -80 91 -105 59 -115 -25 -8 -95 -77 -132 -130 -23 -35 -46 -53 -96
-76 -78 -36 -88 -37 -80 -7 20 80 27 131 24 178 -3 54 -3 54 -62 93 -62 42
-79 69 -91 148 -9 60 1 108 23 108 9 0 55 -15 102 -33z m-5045 -218 c57 -15
129 -95 152 -165 16 -51 16 -56 0 -89 -17 -35 -31 -43 -42 -25 -3 6 -17 10
-30 10 -20 0 -25 -7 -32 -40 l-8 -40 -53 31 c-59 33 -85 69 -108 147 -18 62
-12 119 18 157 21 27 43 30 103 14z m1413 -290 c52 -67 120 -160 151 -208 98
-147 252 -434 239 -446 -3 -3 -17 -1 -32 5 -39 14 -80 12 -119 -6 -34 -16 -35
-16 -108 22 l-74 39 3 125 4 125 -51 80 c-98 155 -116 202 -127 318 -6 54 -4
67 7 67 8 0 56 -55 107 -121z m2152 94 c0 -10 -42 -53 -51 -53 -9 0 -1 29 14
48 10 13 37 17 37 5z m-2851 -38 c84 -43 181 -217 181 -324 0 -48 -16 -101
-30 -101 -4 0 -19 18 -34 40 -19 29 -33 40 -51 40 -35 0 -40 -21 -16 -74 24
-55 14 -58 -50 -18 -92 60 -139 131 -160 245 -27 146 56 246 160 192z m2788
-67 c-3 -8 -6 -5 -6 6 -1 11 2 17 5 13 3 -3 4 -12 1 -19z m-30 -110 c-3 -8 -6
-5 -6 6 -1 11 2 17 5 13 3 -3 4 -12 1 -19z m939 -3 c54 -54 64 -129 32 -235
-17 -55 -26 -62 -54 -43 -24 15 -27 15 -52 -4 -42 -31 -51 -68 -24 -96 21 -22
21 -24 5 -39 -28 -25 -113 -58 -147 -58 -17 0 -44 10 -60 23 -26 21 -29 30
-34 99 -7 116 40 229 130 314 73 69 158 85 204 39z m-953 -77 c-9 -50 -25 -70
-17 -23 7 40 12 55 19 55 3 0 2 -15 -2 -32z m-119 -315 c-4 -16 -11 -34 -17
-41 -5 -6 -7 -24 -4 -40 6 -29 -25 -83 -39 -69 -12 12 45 177 61 177 3 0 2
-12 -1 -27z m268 -103 c27 -27 30 -36 25 -71 -8 -64 -47 -132 -86 -150 -41
-19 -60 -52 -61 -102 0 -37 -2 -39 -62 -67 -83 -39 -119 -39 -152 1 -60 71
-10 245 96 332 113 93 187 110 240 57z m-239 -532 c-25 -39 -28 -41 -31 -20
-5 33 4 51 30 61 13 5 24 7 26 6 2 -2 -9 -23 -25 -47z"/>
</g>
</svg>
